<?xml version="1.0" encoding="UTF-8" standalone="no"?>
<svg
   xmlns:dc="http://purl.org/dc/elements/1.1/"
   xmlns:cc="http://creativecommons.org/ns#"
   xmlns:rdf="http://www.w3.org/1999/02/22-rdf-syntax-ns#"
   xmlns:svg="http://www.w3.org/2000/svg"
   xmlns="http://www.w3.org/2000/svg"
   xmlns:sodipodi="http://sodipodi.sourceforge.net/DTD/sodipodi-0.dtd"
   xmlns:inkscape="http://www.inkscape.org/namespaces/inkscape"
   id="Capa_1"
   enable-background="new 0 0 512 512"
   height="390"
   viewBox="0 0 512 390"
   width="512"
   version="1.1"
   sodipodi:docname="gmail.svg"
   inkscape:version="0.92.3 (2405546, 2018-03-11)">
  <metadata
     id="metadata11">
    <rdf:RDF>
      <cc:Work
         rdf:about="">
        <dc:format>image/svg+xml</dc:format>
        <dc:type
           rdf:resource="http://purl.org/dc/dcmitype/StillImage" />
        <dc:title></dc:title>
      </cc:Work>
    </rdf:RDF>
  </metadata>
  <defs
     id="defs9" />
  <sodipodi:namedview
     pagecolor="#ffffff"
     bordercolor="#666666"
     borderopacity="1"
     objecttolerance="10"
     gridtolerance="10"
     guidetolerance="10"
     inkscape:pageopacity="0"
     inkscape:pageshadow="2"
     inkscape:window-width="1920"
     inkscape:window-height="982"
     id="namedview7"
     showgrid="false"
     inkscape:zoom="0.4609375"
     inkscape:cx="256"
     inkscape:cy="256"
     inkscape:window-x="0"
     inkscape:window-y="27"
     inkscape:window-maximized="1"
     inkscape:current-layer="Capa_1" />
  <g
     id="g4"
     transform="translate(0.1694915,-61.423734)">
    <path
       d="M 467,61 H 45 C 20.187,61 0,81.187 0,106 v 300 c 0,24.813 20.187,45 45,45 h 422 c 24.813,0 45,-20.187 45,-45 V 106 C 512,81.187 491.813,61 467,61 Z M 401.81,91 256,199.785 110.19,91 Z M 45,91 H 60.021 L 247.03,230.523 c 2.661,1.985 5.815,2.977 8.97,2.977 3.155,0 6.309,-0.992 8.97,-2.977 L 451.979,91 H 467 c 8.265,0 14.989,6.719 14.999,14.982 L 256,274.778 30.001,105.982 C 30.011,97.719 36.735,91 45,91 Z m 202.024,214.518 c 2.662,1.988 5.819,2.982 8.976,2.982 3.157,0 6.314,-0.994 8.976,-2.982 L 422,188.238 V 421 H 90 V 188.238 Z M 30,406 V 143.425 l 30,22.407 V 421 H 45 c -8.271,0 -15,-6.729 -15,-15 z m 437,15 H 452 V 165.832 l 30,-22.407 V 406 c 0,8.271 -6.729,15 -15,15 z"
       data-original="#000000"
       class="active-path"
       data-old_color="#000000"
       id="path2"
       inkscape:connector-curvature="0"
       style="fill:#ffffff" />
  </g>
</svg>
